<svg width="202" height="100" viewBox="0 0 202 100" fill="none" xmlns="http://www.w3.org/2000/svg">
<path d="M101.154 54.09C99.726 54.09 98.484 53.832 97.428 53.316C96.372 52.788 95.562 52.044 94.998 51.084C94.434 50.124 94.152 49.008 94.152 47.736C94.152 45.972 94.482 44.406 95.142 43.038C95.814 41.67 96.72 40.614 97.86 39.87C99 39.114 100.266 38.736 101.658 38.736C102.954 38.736 103.938 39.072 104.61 39.744C105.282 40.404 105.618 41.28 105.618 42.372C105.618 43.104 105.486 43.692 105.222 44.136C104.97 44.58 104.604 44.802 104.124 44.802C103.788 44.802 103.524 44.724 103.332 44.568C103.14 44.412 103.044 44.184 103.044 43.884C103.044 43.776 103.068 43.578 103.116 43.29C103.188 42.93 103.224 42.642 103.224 42.426C103.224 41.334 102.642 40.788 101.478 40.788C100.686 40.788 99.93 41.046 99.21 41.562C98.49 42.078 97.908 42.84 97.464 43.848C97.02 44.844 96.798 46.032 96.798 47.412C96.798 48.852 97.2 49.968 98.004 50.76C98.808 51.54 99.996 51.93 101.568 51.93C102.348 51.93 103.134 51.834 103.926 51.642C104.73 51.438 105.618 51.132 106.59 50.724C106.77 50.652 106.92 50.616 107.04 50.616C107.232 50.616 107.376 50.688 107.472 50.832C107.568 50.976 107.616 51.162 107.616 51.39C107.616 52.122 107.22 52.662 106.428 53.01C105.576 53.382 104.688 53.658 103.764 53.838C102.852 54.006 101.982 54.09 101.154 54.09ZM115.208 48.474C115.364 48.474 115.484 48.552 115.568 48.708C115.652 48.864 115.694 49.062 115.694 49.302C115.694 49.878 115.52 50.22 115.172 50.328C114.452 50.58 113.66 50.724 112.796 50.76C112.568 51.768 112.118 52.578 111.446 53.19C110.774 53.79 110.012 54.09 109.16 54.09C108.44 54.09 107.822 53.916 107.306 53.568C106.802 53.22 106.418 52.758 106.154 52.182C105.89 51.606 105.758 50.982 105.758 50.31C105.758 49.398 105.932 48.588 106.28 47.88C106.628 47.16 107.108 46.602 107.72 46.206C108.332 45.798 109.01 45.594 109.754 45.594C110.666 45.594 111.398 45.912 111.95 46.548C112.514 47.172 112.844 47.946 112.94 48.87C113.504 48.834 114.176 48.714 114.956 48.51C115.052 48.486 115.136 48.474 115.208 48.474ZM109.304 52.182C109.688 52.182 110.018 52.026 110.294 51.714C110.582 51.402 110.774 50.952 110.87 50.364C110.498 50.112 110.21 49.782 110.006 49.374C109.814 48.966 109.718 48.534 109.718 48.078C109.718 47.886 109.736 47.694 109.772 47.502H109.682C109.202 47.502 108.8 47.736 108.476 48.204C108.164 48.66 108.008 49.308 108.008 50.148C108.008 50.808 108.134 51.312 108.386 51.66C108.65 52.008 108.956 52.182 109.304 52.182ZM115.427 54.09C114.971 54.09 114.647 53.85 114.455 53.37C114.275 52.89 114.185 52.122 114.185 51.066C114.185 49.506 114.407 48.024 114.851 46.62C114.959 46.272 115.133 46.02 115.373 45.864C115.625 45.696 115.973 45.612 116.417 45.612C116.657 45.612 116.825 45.642 116.921 45.702C117.017 45.762 117.065 45.876 117.065 46.044C117.065 46.236 116.975 46.668 116.795 47.34C116.675 47.82 116.579 48.24 116.507 48.6C116.435 48.96 116.375 49.404 116.327 49.932C116.723 48.9 117.167 48.06 117.659 47.412C118.151 46.764 118.631 46.302 119.099 46.026C119.579 45.75 120.017 45.612 120.413 45.612C121.193 45.612 121.583 46.002 121.583 46.782C121.583 46.938 121.529 47.316 121.421 47.916C121.325 48.396 121.277 48.696 121.277 48.816C121.277 49.236 121.427 49.446 121.727 49.446C122.063 49.446 122.495 49.182 123.023 48.654C123.179 48.498 123.341 48.42 123.509 48.42C123.665 48.42 123.785 48.492 123.869 48.636C123.965 48.768 124.013 48.948 124.013 49.176C124.013 49.62 123.893 49.968 123.653 50.22C123.317 50.568 122.921 50.868 122.465 51.12C122.021 51.36 121.547 51.48 121.043 51.48C120.407 51.48 119.921 51.318 119.585 50.994C119.261 50.67 119.099 50.232 119.099 49.68C119.099 49.5 119.117 49.32 119.153 49.14C119.177 48.9 119.189 48.738 119.189 48.654C119.189 48.462 119.123 48.366 118.991 48.366C118.811 48.366 118.571 48.57 118.271 48.978C117.983 49.374 117.695 49.902 117.407 50.562C117.119 51.222 116.885 51.918 116.705 52.65C116.573 53.214 116.417 53.598 116.237 53.802C116.069 53.994 115.799 54.09 115.427 54.09ZM131.521 48.474C131.677 48.474 131.797 48.552 131.881 48.708C131.965 48.864 132.007 49.062 132.007 49.302C132.007 49.878 131.833 50.22 131.485 50.328C130.765 50.58 129.973 50.724 129.109 50.76C128.881 51.768 128.431 52.578 127.759 53.19C127.087 53.79 126.325 54.09 125.473 54.09C124.753 54.09 124.135 53.916 123.619 53.568C123.115 53.22 122.731 52.758 122.467 52.182C122.203 51.606 122.071 50.982 122.071 50.31C122.071 49.398 122.245 48.588 122.593 47.88C122.941 47.16 123.421 46.602 124.033 46.206C124.645 45.798 125.323 45.594 126.067 45.594C126.979 45.594 127.711 45.912 128.263 46.548C128.827 47.172 129.157 47.946 129.253 48.87C129.817 48.834 130.489 48.714 131.269 48.51C131.365 48.486 131.449 48.474 131.521 48.474ZM125.617 52.182C126.001 52.182 126.331 52.026 126.607 51.714C126.895 51.402 127.087 50.952 127.183 50.364C126.811 50.112 126.523 49.782 126.319 49.374C126.127 48.966 126.031 48.534 126.031 48.078C126.031 47.886 126.049 47.694 126.085 47.502H125.995C125.515 47.502 125.113 47.736 124.789 48.204C124.477 48.66 124.321 49.308 124.321 50.148C124.321 50.808 124.447 51.312 124.699 51.66C124.963 52.008 125.269 52.182 125.617 52.182ZM131.74 54.09C131.284 54.09 130.96 53.85 130.768 53.37C130.588 52.89 130.498 52.122 130.498 51.066C130.498 49.506 130.72 48.024 131.164 46.62C131.272 46.272 131.446 46.02 131.686 45.864C131.938 45.696 132.286 45.612 132.73 45.612C132.97 45.612 133.138 45.642 133.234 45.702C133.33 45.762 133.378 45.876 133.378 46.044C133.378 46.236 133.288 46.668 133.108 47.34C132.988 47.82 132.892 48.24 132.82 48.6C132.748 48.96 132.688 49.404 132.64 49.932C133.036 48.9 133.48 48.06 133.972 47.412C134.464 46.764 134.944 46.302 135.412 46.026C135.892 45.75 136.33 45.612 136.726 45.612C137.506 45.612 137.896 46.002 137.896 46.782C137.896 47.25 137.764 48.096 137.5 49.32C137.272 50.364 137.158 51.054 137.158 51.39C137.158 51.87 137.332 52.11 137.68 52.11C137.92 52.11 138.202 51.966 138.526 51.678C138.862 51.378 139.306 50.898 139.858 50.238C140.002 50.07 140.164 49.986 140.344 49.986C140.5 49.986 140.62 50.058 140.704 50.202C140.8 50.346 140.848 50.544 140.848 50.796C140.848 51.276 140.734 51.648 140.506 51.912C139.99 52.548 139.432 53.07 138.832 53.478C138.244 53.886 137.572 54.09 136.816 54.09C136.204 54.09 135.742 53.916 135.43 53.568C135.118 53.208 134.962 52.692 134.962 52.02C134.962 51.684 135.046 51.084 135.214 50.22C135.37 49.464 135.448 48.942 135.448 48.654C135.448 48.462 135.382 48.366 135.25 48.366C135.094 48.366 134.872 48.57 134.584 48.978C134.308 49.374 134.02 49.902 133.72 50.562C133.432 51.222 133.198 51.918 133.018 52.65C132.886 53.214 132.73 53.598 132.55 53.802C132.382 53.994 132.112 54.09 131.74 54.09ZM148.571 48.474C148.727 48.474 148.847 48.552 148.931 48.708C149.015 48.864 149.057 49.062 149.057 49.302C149.057 49.878 148.883 50.22 148.535 50.328C147.815 50.58 147.023 50.724 146.159 50.76C145.931 51.768 145.481 52.578 144.809 53.19C144.137 53.79 143.375 54.09 142.523 54.09C141.803 54.09 141.185 53.916 140.669 53.568C140.165 53.22 139.781 52.758 139.517 52.182C139.253 51.606 139.121 50.982 139.121 50.31C139.121 49.398 139.295 48.588 139.643 47.88C139.991 47.16 140.471 46.602 141.083 46.206C141.695 45.798 142.373 45.594 143.117 45.594C144.029 45.594 144.761 45.912 145.313 46.548C145.877 47.172 146.207 47.946 146.303 48.87C146.867 48.834 147.539 48.714 148.319 48.51C148.415 48.486 148.499 48.474 148.571 48.474ZM142.667 52.182C143.051 52.182 143.381 52.026 143.657 51.714C143.945 51.402 144.137 50.952 144.233 50.364C143.861 50.112 143.573 49.782 143.369 49.374C143.177 48.966 143.081 48.534 143.081 48.078C143.081 47.886 143.099 47.694 143.135 47.502H143.045C142.565 47.502 142.163 47.736 141.839 48.204C141.527 48.66 141.371 49.308 141.371 50.148C141.371 50.808 141.497 51.312 141.749 51.66C142.013 52.008 142.319 52.182 142.667 52.182ZM156.598 48.528C156.634 48.516 156.694 48.51 156.778 48.51C156.958 48.51 157.096 48.57 157.192 48.69C157.288 48.81 157.336 48.972 157.336 49.176C157.336 49.548 157.264 49.842 157.12 50.058C156.976 50.262 156.76 50.412 156.472 50.508C155.92 50.688 155.332 50.778 154.708 50.778C154.18 50.778 153.682 50.706 153.214 50.562C152.866 51.126 152.482 51.708 152.062 52.308C151.582 52.992 151.168 53.46 150.82 53.712C150.472 53.964 150.076 54.09 149.632 54.09C149.14 54.09 148.75 53.898 148.462 53.514C148.186 53.13 148.012 52.524 147.94 51.696C147.796 50.016 147.724 48.546 147.724 47.286V46.656C147.736 46.26 147.844 45.984 148.048 45.828C148.252 45.672 148.558 45.594 148.966 45.594C149.278 45.594 149.506 45.666 149.65 45.81C149.806 45.942 149.884 46.17 149.884 46.494C149.884 47.874 149.968 49.668 150.136 51.876C150.856 50.808 151.396 49.956 151.756 49.32C151.576 48.972 151.486 48.558 151.486 48.078C151.486 47.67 151.576 47.274 151.756 46.89C151.936 46.506 152.182 46.194 152.494 45.954C152.806 45.714 153.16 45.594 153.556 45.594C153.904 45.594 154.186 45.72 154.402 45.972C154.618 46.212 154.726 46.566 154.726 47.034C154.726 47.574 154.582 48.192 154.294 48.888C154.75 48.864 155.356 48.774 156.112 48.618L156.598 48.528ZM158.132 44.424C157.628 44.424 157.25 44.31 156.998 44.082C156.746 43.842 156.62 43.512 156.62 43.092C156.62 42.672 156.782 42.324 157.106 42.048C157.442 41.76 157.856 41.616 158.348 41.616C158.792 41.616 159.152 41.724 159.428 41.94C159.704 42.156 159.842 42.462 159.842 42.858C159.842 43.338 159.686 43.722 159.374 44.01C159.062 44.286 158.648 44.424 158.132 44.424ZM157.988 54.09C157.208 54.09 156.638 53.814 156.278 53.262C155.93 52.71 155.756 51.978 155.756 51.066C155.756 50.526 155.822 49.836 155.954 48.996C156.098 48.144 156.278 47.352 156.494 46.62C156.602 46.236 156.746 45.972 156.926 45.828C157.106 45.684 157.394 45.612 157.79 45.612C158.402 45.612 158.708 45.816 158.708 46.224C158.708 46.524 158.594 47.22 158.366 48.312C158.078 49.632 157.934 50.526 157.934 50.994C157.934 51.354 157.982 51.63 158.078 51.822C158.174 52.014 158.336 52.11 158.564 52.11C158.78 52.11 159.05 51.96 159.374 51.66C159.698 51.36 160.13 50.886 160.67 50.238C160.814 50.07 160.976 49.986 161.156 49.986C161.312 49.986 161.432 50.058 161.516 50.202C161.612 50.346 161.66 50.544 161.66 50.796C161.66 51.276 161.546 51.648 161.318 51.912C160.13 53.364 159.02 54.09 157.988 54.09ZM161.482 54.09C161.026 54.09 160.702 53.85 160.51 53.37C160.33 52.89 160.24 52.122 160.24 51.066C160.24 49.506 160.462 48.024 160.906 46.62C161.014 46.272 161.188 46.02 161.428 45.864C161.68 45.696 162.028 45.612 162.472 45.612C162.712 45.612 162.88 45.642 162.976 45.702C163.072 45.762 163.12 45.876 163.12 46.044C163.12 46.236 163.03 46.668 162.85 47.34C162.73 47.82 162.634 48.24 162.562 48.6C162.49 48.96 162.43 49.404 162.382 49.932C162.778 48.9 163.222 48.06 163.714 47.412C164.206 46.764 164.686 46.302 165.154 46.026C165.634 45.75 166.072 45.612 166.468 45.612C167.248 45.612 167.638 46.002 167.638 46.782C167.638 46.938 167.584 47.316 167.476 47.916C167.38 48.396 167.332 48.696 167.332 48.816C167.332 49.236 167.482 49.446 167.782 49.446C168.118 49.446 168.55 49.182 169.078 48.654C169.234 48.498 169.396 48.42 169.564 48.42C169.72 48.42 169.84 48.492 169.924 48.636C170.02 48.768 170.068 48.948 170.068 49.176C170.068 49.62 169.948 49.968 169.708 50.22C169.372 50.568 168.976 50.868 168.52 51.12C168.076 51.36 167.602 51.48 167.098 51.48C166.462 51.48 165.976 51.318 165.64 50.994C165.316 50.67 165.154 50.232 165.154 49.68C165.154 49.5 165.172 49.32 165.208 49.14C165.232 48.9 165.244 48.738 165.244 48.654C165.244 48.462 165.178 48.366 165.046 48.366C164.866 48.366 164.626 48.57 164.326 48.978C164.038 49.374 163.75 49.902 163.462 50.562C163.174 51.222 162.94 51.918 162.76 52.65C162.628 53.214 162.472 53.598 162.292 53.802C162.124 53.994 161.854 54.09 161.482 54.09ZM170.231 54.09C169.691 54.09 169.247 53.844 168.899 53.352C168.563 52.848 168.395 52.224 168.395 51.48C168.395 50.58 168.455 49.758 168.575 49.014C168.695 48.258 168.893 47.46 169.169 46.62C169.289 46.26 169.457 46.002 169.673 45.846C169.889 45.69 170.231 45.612 170.699 45.612C170.963 45.612 171.143 45.654 171.239 45.738C171.347 45.822 171.401 45.948 171.401 46.116C171.401 46.212 171.335 46.536 171.203 47.088C171.083 47.532 170.987 47.934 170.915 48.294C170.675 49.554 170.555 50.394 170.555 50.814C170.555 51.066 170.585 51.246 170.645 51.354C170.705 51.45 170.801 51.498 170.933 51.498C171.113 51.498 171.335 51.318 171.599 50.958C171.875 50.598 172.163 50.052 172.463 49.32C172.775 48.588 173.075 47.688 173.363 46.62C173.459 46.26 173.603 46.002 173.795 45.846C173.999 45.69 174.299 45.612 174.695 45.612C174.971 45.612 175.163 45.648 175.271 45.72C175.379 45.78 175.433 45.9 175.433 46.08C175.433 46.38 175.283 47.202 174.983 48.546C174.647 50.082 174.479 51.03 174.479 51.39C174.479 51.618 174.527 51.798 174.623 51.93C174.719 52.05 174.845 52.11 175.001 52.11C175.241 52.11 175.523 51.966 175.847 51.678C176.183 51.378 176.627 50.898 177.179 50.238C177.323 50.07 177.485 49.986 177.665 49.986C177.821 49.986 177.941 50.058 178.025 50.202C178.121 50.346 178.169 50.544 178.169 50.796C178.169 51.276 178.055 51.648 177.827 51.912C177.311 52.548 176.753 53.07 176.153 53.478C175.565 53.886 174.893 54.09 174.137 54.09C173.561 54.09 173.135 53.868 172.859 53.424C172.595 52.98 172.463 52.356 172.463 51.552C172.259 52.368 171.953 52.998 171.545 53.442C171.137 53.874 170.699 54.09 170.231 54.09ZM180.058 54.486C179.434 54.486 178.954 54.342 178.618 54.054C178.294 53.766 178.132 53.442 178.132 53.082C178.132 52.77 178.246 52.5 178.474 52.272C178.702 52.044 179.038 51.93 179.482 51.93C179.638 51.93 179.818 51.948 180.022 51.984C180.238 52.008 180.4 52.026 180.508 52.038C180.496 51.726 180.424 51.432 180.292 51.156C180.172 50.88 180.016 50.616 179.824 50.364C179.632 50.1 179.452 49.872 179.284 49.68C178.912 50.388 178.54 50.976 178.168 51.444C177.808 51.912 177.412 52.356 176.98 52.776C176.764 52.992 176.536 53.1 176.296 53.1C176.104 53.1 175.948 53.034 175.828 52.902C175.708 52.758 175.648 52.584 175.648 52.38C175.648 52.14 175.732 51.918 175.9 51.714L176.134 51.426C176.794 50.61 177.292 49.938 177.628 49.41C177.844 49.062 178.06 48.648 178.276 48.168C178.504 47.688 178.798 47.034 179.158 46.206C179.386 45.678 179.86 45.414 180.58 45.414C180.916 45.414 181.15 45.444 181.282 45.504C181.414 45.564 181.48 45.66 181.48 45.792C181.48 45.864 181.456 45.978 181.408 46.134C181.36 46.29 181.294 46.446 181.21 46.602C180.994 47.034 180.886 47.4 180.886 47.7C180.886 47.88 180.946 48.078 181.066 48.294C181.198 48.51 181.396 48.78 181.66 49.104C182.044 49.608 182.332 50.04 182.524 50.4C182.728 50.748 182.83 51.132 182.83 51.552C182.83 52.056 182.71 52.536 182.47 52.992C182.242 53.436 181.918 53.796 181.498 54.072C181.078 54.348 180.598 54.486 180.058 54.486Z" fill="white"/>
<path d="M51.9801 23.1669C59.6038 20.1341 72.0869 18.1507 77.4453 19.128C78.4781 19.3164 100.287 28.0998 100.523 36.3707C104.834 37.5763 72.6952 32.8527 77.9 36.535C80.7862 53.183 77.3523 58.0454 73.0902 67.2676C67.6348 79.0721 43.1516 78.9774 36.284 63.2863C27.8903 44.1084 39.3845 28.1775 51.9801 23.1669Z" fill="url(#paint0_diamond)"/>
<path d="M24.8504 49.4503C23.1146 41.1634 23.1104 28.0442 24.8487 22.6887C25.1838 21.6564 36.8318 0.583594 44.7377 1.58927C46.5352 -2.65559 37.1921 29.6374 41.4812 24.8477C57.7582 24.395 61.8672 28.6552 69.9997 34.4235C80.4094 41.8069 76.6259 66.9364 60.6588 71.6222C41.1435 77.3493 27.7182 63.1416 24.8504 49.4503Z" fill="url(#paint1_diamond)"/>
<path d="M56.604 73.1099C49.2691 76.8328 37.0044 79.9581 31.5837 79.4781C30.5389 79.3856 8.0659 72.6453 7.12538 64.4287C2.72904 63.6248 35.144 65.37 29.6455 62.1815C25.3499 45.8649 28.3555 40.7053 31.8138 31.1269C36.2404 18.8665 60.6353 16.706 68.8148 31.7028C78.812 50.0323 68.7224 66.959 56.604 73.1099Z" fill="url(#paint2_diamond)"/>
<path d="M37.3142 69.0414C29.5785 66.332 18.7413 59.5971 15.211 55.2968C14.5306 54.468 3.10966 33.2614 8.00105 26.731C5.41854 22.9485 27.2901 47.8637 25.5374 41.5804C33.5242 26.8392 39.1532 25.365 48.0945 21.0789C59.5394 15.5926 78.3503 31.8728 74.0188 48.512C68.7248 68.8488 50.0948 73.5177 37.3142 69.0414Z" fill="url(#paint3_diamond)"/>
<path d="M74.9599 58.4665C72.9501 66.6863 67.3135 78.4261 63.4557 82.4112C62.7121 83.1793 43.2305 96.6286 36.5895 92.0604C33.1562 95.0243 55.3994 70.4666 49.5026 72.7618C34.7448 65.6142 32.9001 59.896 28.1038 50.9615C21.9644 39.5253 36.1536 18.7972 52.4542 22.0136C72.377 25.9448 78.2804 44.886 74.9599 58.4665Z" fill="url(#paint4_diamond)"/>
<path d="M71.3017 25.9315C78.6253 29.6781 88.5118 37.8404 91.4646 42.5872C92.0338 43.5022 100.66 66.0896 94.9813 71.8918C97.0606 75.9955 78.5467 48.2986 79.4855 54.7673C69.6954 68.284 63.9283 68.9733 54.5206 71.9956C42.4787 75.8641 25.9013 57.1465 32.3094 41.2469C40.1415 21.8143 59.2017 19.7414 71.3017 25.9315Z" fill="url(#paint5_diamond)"/>
<path d="M32.6658 26.6745C37.315 19.7035 46.5468 10.7519 51.5022 8.41948C52.4574 7.96993 75.2357 2.44532 79.9203 9.13729C84.1343 7.60749 55.0303 22.5363 61.3274 22.5277C72.7484 34.5845 72.5523 40.6119 74.0391 50.7246C75.9423 63.669 55.6728 77.9353 41.4834 69.0013C24.1408 58.082 24.9844 38.1919 32.6658 26.6745Z" fill="url(#paint6_diamond)"/>
<path d="M74.7472 40.3192C78.7789 47.6936 82.5422 60.2166 82.4174 65.8669C82.3933 66.956 77.3118 90.6758 69.4763 92.1607C68.9766 96.769 68.6425 63.0506 65.9203 68.9497C50.511 74.4157 45.3676 71.6195 35.9508 68.6278C23.8973 64.7985 20.3083 39.6382 34.2088 30.2267C51.1982 18.7239 68.0861 28.1355 74.7472 40.3192Z" fill="url(#paint7_diamond)"/>
<defs>
<radialGradient id="paint0_diamond" cx="0" cy="0" r="1" gradientUnits="userSpaceOnUse" gradientTransform="translate(64.7721 43.9529) rotate(-36.2409) scale(34.7777 25.2196)">
<stop stop-color="#3F0000"/>
<stop offset="0.208333" stop-color="#810000" stop-opacity="0.670139"/>
<stop offset="0.375" stop-color="#EB0000" stop-opacity="0.40625"/>
<stop offset="0.510417" stop-color="#FF0000" stop-opacity="0.227225"/>
<stop offset="0.609375" stop-color="#EE0000" stop-opacity="0.0963983"/>
<stop offset="0.682292" stop-color="white" stop-opacity="0"/>
<stop offset="0.947917" stop-color="#640A0A" stop-opacity="0"/>
</radialGradient>
<radialGradient id="paint1_diamond" cx="0" cy="0" r="1" gradientUnits="userSpaceOnUse" gradientTransform="translate(46.5594 39.4489) rotate(-115.666) scale(35.4008 24.7757)">
<stop stop-color="#3F0000"/>
<stop offset="0.208333" stop-color="#810000" stop-opacity="0.670139"/>
<stop offset="0.375" stop-color="#EB0000" stop-opacity="0.40625"/>
<stop offset="0.510417" stop-color="#FF0000" stop-opacity="0.227225"/>
<stop offset="0.609375" stop-color="#EE0000" stop-opacity="0.0963983"/>
<stop offset="0.682292" stop-color="white" stop-opacity="0"/>
<stop offset="0.947917" stop-color="#640A0A" stop-opacity="0"/>
</radialGradient>
<radialGradient id="paint2_diamond" cx="0" cy="0" r="1" gradientUnits="userSpaceOnUse" gradientTransform="translate(42.0887 53.5838) rotate(138.628) scale(34.8928 25.1364)">
<stop stop-color="#3F0000"/>
<stop offset="0.208333" stop-color="#810000" stop-opacity="0.670139"/>
<stop offset="0.375" stop-color="#EB0000" stop-opacity="0.40625"/>
<stop offset="0.510417" stop-color="#FF0000" stop-opacity="0.227225"/>
<stop offset="0.609375" stop-color="#EE0000" stop-opacity="0.0963983"/>
<stop offset="0.682292" stop-color="white" stop-opacity="0"/>
<stop offset="0.947917" stop-color="#640A0A" stop-opacity="0"/>
</radialGradient>
<radialGradient id="paint3_diamond" cx="0" cy="0" r="1" gradientUnits="userSpaceOnUse" gradientTransform="translate(40.2049 44.5538) rotate(-175.452) scale(34.3365 25.5437)">
<stop stop-color="#3F0000"/>
<stop offset="0.208333" stop-color="#810000" stop-opacity="0.670139"/>
<stop offset="0.375" stop-color="#EB0000" stop-opacity="0.40625"/>
<stop offset="0.510417" stop-color="#FF0000" stop-opacity="0.227225"/>
<stop offset="0.609375" stop-color="#EE0000" stop-opacity="0.0963983"/>
<stop offset="0.682292" stop-color="white" stop-opacity="0"/>
<stop offset="0.947917" stop-color="#640A0A" stop-opacity="0"/>
</radialGradient>
<radialGradient id="paint4_diamond" cx="0" cy="0" r="1" gradientUnits="userSpaceOnUse" gradientTransform="translate(51.2366 57.3417) rotate(90) scale(35.663 24.5936)">
<stop stop-color="#3F0000"/>
<stop offset="0.208333" stop-color="#810000" stop-opacity="0.670139"/>
<stop offset="0.375" stop-color="#EB0000" stop-opacity="0.40625"/>
<stop offset="0.510417" stop-color="#FF0000" stop-opacity="0.227225"/>
<stop offset="0.609375" stop-color="#EE0000" stop-opacity="0.0963983"/>
<stop offset="0.682292" stop-color="white" stop-opacity="0"/>
<stop offset="0.947917" stop-color="#640A0A" stop-opacity="0"/>
</radialGradient>
<radialGradient id="paint5_diamond" cx="0" cy="0" r="1" gradientUnits="userSpaceOnUse" gradientTransform="translate(65.3244 49.8083) rotate(12.4158) scale(34.3869 25.5062)">
<stop stop-color="#3F0000"/>
<stop offset="0.208333" stop-color="#810000" stop-opacity="0.670139"/>
<stop offset="0.375" stop-color="#EB0000" stop-opacity="0.40625"/>
<stop offset="0.510417" stop-color="#FF0000" stop-opacity="0.227225"/>
<stop offset="0.609375" stop-color="#EE0000" stop-opacity="0.0963983"/>
<stop offset="0.682292" stop-color="white" stop-opacity="0"/>
<stop offset="0.947917" stop-color="#640A0A" stop-opacity="0"/>
</radialGradient>
<radialGradient id="paint6_diamond" cx="0" cy="0" r="1" gradientUnits="userSpaceOnUse" gradientTransform="translate(54.5133 36.3449) rotate(-70.2413) scale(35.5026 24.7047)">
<stop stop-color="#3F0000"/>
<stop offset="0.208333" stop-color="#810000" stop-opacity="0.670139"/>
<stop offset="0.375" stop-color="#EB0000" stop-opacity="0.40625"/>
<stop offset="0.510417" stop-color="#FF0000" stop-opacity="0.227225"/>
<stop offset="0.609375" stop-color="#EE0000" stop-opacity="0.0963983"/>
<stop offset="0.682292" stop-color="white" stop-opacity="0"/>
<stop offset="0.947917" stop-color="#640A0A" stop-opacity="0"/>
</radialGradient>
<radialGradient id="paint7_diamond" cx="0" cy="0" r="1" gradientUnits="userSpaceOnUse" gradientTransform="translate(56.8883 56.581) rotate(47.2428) scale(35.0289 25.0387)">
<stop stop-color="#3F0000"/>
<stop offset="0.208333" stop-color="#810000" stop-opacity="0.670139"/>
<stop offset="0.375" stop-color="#EB0000" stop-opacity="0.40625"/>
<stop offset="0.510417" stop-color="#FF0000" stop-opacity="0.227225"/>
<stop offset="0.609375" stop-color="#EE0000" stop-opacity="0.0963983"/>
<stop offset="0.682292" stop-color="white" stop-opacity="0"/>
<stop offset="0.947917" stop-color="#640A0A" stop-opacity="0"/>
</radialGradient>
</defs>
</svg>
